<svg width="49" height="52" viewBox="0 0 49 52" fill="none" xmlns="http://www.w3.org/2000/svg">
<path d="M24.1591 22.8126C24.1591 22.8126 25.8303 22.8263 26.6933 22.2236C26.794 22.1534 26.9186 22.0553 27.0699 21.936C28.5135 20.7985 32.3851 17.7476 41.077 18.8883L24.1591 22.8126ZM24.1591 22.8126C24.1552 22.3126 24.1553 22.3126 24.1553 22.3126L24.1554 22.3126L24.1555 22.3126L24.1632 22.3126V22.3126M24.1591 22.8126C24.1632 22.3126 24.1631 22.3126 24.163 22.3126H24.1632M24.1591 22.8126L24.1632 22.3126M24.1591 22.8126L24.1552 22.3126L24.1529 22.3126L24.1408 22.3126C24.1296 22.3126 24.1123 22.3124 24.0895 22.3121C24.0438 22.3113 23.9763 22.3097 23.8921 22.3058C23.7232 22.2982 23.4899 22.282 23.2325 22.2483C22.6929 22.1777 22.1407 22.041 21.8152 21.8137L21.8147 21.8134C21.7293 21.7539 21.6177 21.6657 21.4784 21.5556C20.8447 21.0548 19.6384 20.1016 17.7246 19.3413C15.3761 18.4084 11.959 17.7523 7.08026 18.3925L47.6713 25.5588M24.1591 22.8126C24.1591 22.8126 22.3919 22.8263 21.5289 22.2236L24.1591 22.8126ZM24.1632 22.3126L24.1651 22.3126L24.1762 22.3126C24.1865 22.3126 24.2027 22.3124 24.2241 22.3121C24.2669 22.3114 24.3304 22.3097 24.4098 22.3059C24.5692 22.2983 24.7899 22.2822 25.0348 22.2487C25.5462 22.1788 26.0785 22.0431 26.4071 21.8137L26.4075 21.8134C26.4929 21.7539 26.6045 21.6657 26.7438 21.5556C27.3775 21.0548 28.5838 20.1016 30.4977 19.3413C32.8461 18.4084 36.2633 17.7523 41.1421 18.3925L41.1426 18.3926C44.1052 18.7847 45.7336 19.9626 46.6176 21.4198C47.4471 22.7872 47.5722 24.3338 47.6614 25.437C47.6647 25.4782 47.668 25.5189 47.6713 25.5588M47.6713 25.5588C47.7912 27.0084 47.7332 29.139 47.1253 31.122C46.5176 33.1046 45.3333 35.0152 43.1495 35.8663C40.6309 36.8506 37.0471 36.9205 33.8541 36.3464C32.25 36.0581 30.719 35.603 29.4454 35.0013C28.1816 34.4043 27.1217 33.6396 26.5252 32.7039C25.7384 31.4707 25.5084 30.2021 25.3345 29.243C25.3036 29.0727 25.2745 28.9121 25.2444 28.7632C25.1386 28.2411 25.0318 27.9147 24.8723 27.7124C24.7468 27.5532 24.5492 27.4219 24.0906 27.4219C23.6318 27.4219 23.4381 27.5531 23.3162 27.7098C23.1597 27.911 23.0563 28.2363 22.9547 28.7593C22.9264 28.9048 22.8992 29.0614 22.8703 29.2273C22.7031 30.1887 22.4813 31.4639 21.6902 32.7039C21.0936 33.6396 20.0338 34.4043 18.7699 35.0013C17.4963 35.603 15.9654 36.0581 14.3613 36.3464C11.1683 36.9205 7.58446 36.8506 5.06592 35.8663L5.06544 35.8661C2.88531 35.0115 1.7029 33.1011 1.09601 31.1193C0.489068 29.1373 0.431043 27.0086 0.550938 25.5591C0.554413 25.5166 0.557902 25.4734 0.561448 25.4295C0.650464 24.3272 0.775194 22.7827 1.60189 21.4176C2.48516 19.959 4.114 18.7811 7.08015 18.3925L47.6713 25.5593C47.6713 25.5591 47.6713 25.559 47.6713 25.5588ZM6.7015 32.9724L6.70209 32.9726C7.6451 33.2752 9.88963 33.6162 12.3317 33.4726C14.7827 33.3285 17.3083 32.703 18.9191 31.1875L6.7015 32.9724ZM6.7015 32.9724C6.08615 32.7758 5.499 32.2088 5.00743 31.3296C4.52162 30.4608 4.16583 29.3495 3.98239 28.1863C3.79903 27.0236 3.79221 25.8366 3.98261 24.8209C4.17495 23.7948 4.55577 23.0067 5.08982 22.5587L5.09017 22.5584M6.7015 32.9724L5.09017 22.5584M5.09017 22.5584C5.62932 22.1053 6.49821 21.7568 7.61452 21.5489C8.72068 21.343 10.0227 21.2838 11.3818 21.3717C14.1119 21.548 16.9874 22.311 18.9047 23.5727L18.9053 23.5731M5.09017 22.5584L18.9053 23.5731M18.9053 23.5731C19.2093 23.7726 19.5071 24.2039 19.7344 24.8575M18.9053 23.5731L19.7344 24.8575M19.7344 24.8575C19.9568 25.4971 20.0888 26.2856 20.1104 27.1071M19.7344 24.8575L20.1104 27.1071M20.1104 27.1071C20.132 27.9278 20.0428 28.7609 19.8378 29.4886M20.1104 27.1071L19.8378 29.4886M19.8378 29.4886C19.6313 30.2215 19.318 30.8107 18.9191 31.1874L19.8378 29.4886ZM41.5276 32.9724L41.527 32.9726C40.584 33.2752 38.3395 33.6162 35.8974 33.4726C33.4463 33.3285 30.9207 32.703 29.31 31.1874L29.3099 31.1874C28.9093 30.8106 28.5952 30.2217 28.3885 29.4894C28.1833 28.7624 28.0946 27.9303 28.117 27.1101C28.1394 26.2893 28.2726 25.5011 28.4963 24.8613C28.7248 24.2078 29.0242 23.7747 29.3309 23.5729C31.2484 22.3144 34.1258 21.5514 36.8568 21.3742C38.2165 21.286 39.5187 21.3445 40.6245 21.5499C41.7406 21.7573 42.6081 22.1054 43.1453 22.558L43.1456 22.5583C43.6781 23.0062 44.0578 23.7942 44.2493 24.8205C44.4388 25.8362 44.4314 27.0234 44.2476 28.1861C44.0637 29.3494 43.7077 30.4607 43.2218 31.3296C42.7301 32.2088 42.1429 32.7758 41.5276 32.9724Z" fill="#0A446D" stroke="url(#paint0_linear_290_9544)"/>
<path d="M33.8032 8.5191L35.7484 7.20414L29.1388 6.73842L31.495 4.02632L24.1113 6.12203L26.2894 1.44434L14.8167 8.31363C8.00845 11.7243 3.33032 18.7648 3.33032 26.8943C3.33032 38.366 12.6318 47.6666 24.1045 47.6666C35.5772 47.6666 44.8787 38.366 44.8787 26.8943C44.8855 18.9223 40.3923 12.0051 33.8032 8.5191Z" fill="url(#paint1_linear_290_9544)"/>
<path d="M47.173 25.6C46.988 23.34 46.7689 19.6416 41.077 18.8883C31.4742 17.6281 27.755 21.4839 26.6933 22.2236C25.8303 22.8263 24.1591 22.8126 24.1591 22.8126C24.1591 22.8126 22.3919 22.8263 21.5289 22.2236C20.4672 21.4839 16.748 17.6281 7.14521 18.8883C1.44652 19.6348 1.23419 23.34 1.04926 25.6C0.816379 28.4149 1.28214 33.8459 5.24793 35.4006C10.0493 37.2772 19.1727 35.7225 21.2686 32.4351C22.9947 29.7298 21.7892 26.9219 24.0906 26.9219C26.392 26.9219 25.2207 29.7298 26.9468 32.4351C29.0427 35.7225 38.166 37.2772 42.9675 35.4006C46.9401 33.8528 47.4059 28.4149 47.173 25.6ZM19.2618 31.5516C15.7823 34.8253 8.57673 34.0993 6.54931 33.4487C3.3986 32.4419 2.13146 24.3878 4.76847 22.1757C7.30274 20.0457 15.1521 20.5046 19.1796 23.155C20.933 24.3056 21.2138 29.7093 19.2618 31.5516ZM41.6798 33.4487C39.6524 34.0993 32.4468 34.8253 28.9673 31.5516C27.0084 29.7093 27.2961 24.3125 29.0564 23.155C33.0838 20.5114 40.94 20.0457 43.4675 22.1757C46.0976 24.3878 44.8305 32.4419 41.6798 33.4487Z" fill="#0A446D"/>
<defs>
<linearGradient id="paint0_linear_290_9544" x1="24.1111" y1="18.6372" x2="24.1111" y2="36.2092" gradientUnits="userSpaceOnUse">
<stop stop-color="#5CC5FF"/>
<stop offset="1" stop-color="#36B7FF"/>
</linearGradient>
<linearGradient id="paint1_linear_290_9544" x1="24.1045" y1="1.44434" x2="24.1045" y2="47.6666" gradientUnits="userSpaceOnUse">
<stop stop-color="#7CD0FF"/>
<stop offset="1" stop-color="#1FAEFF"/>
</linearGradient>
</defs>
</svg>
