<svg width="24" height="24" viewBox="0 0 24 24" fill="none" xmlns="http://www.w3.org/2000/svg">
    <circle cx="12" cy="12" r="11" fill="#4B75A7" stroke="white" stroke-width="2"/>
    <path d="M17.1843 9.66224C17.2737 9.91143 16.9821 10.4838 16.3096 11.3793C16.2163 11.5039 16.0899 11.6694 15.9306 11.8758C15.7751 12.0743 15.6681 12.2145 15.6098 12.2963C15.5515 12.378 15.4913 12.4754 15.4291 12.5883C15.3708 12.6973 15.3474 12.7791 15.3591 12.8336C15.3746 12.8842 15.3999 12.9504 15.4349 13.0322C15.4738 13.1139 15.5379 13.1976 15.6273 13.2833C15.7167 13.369 15.8275 13.4721 15.9597 13.5928C15.9753 13.6006 15.985 13.6084 15.9889 13.6162C16.537 14.1263 16.9082 14.5565 17.1026 14.9069C17.1143 14.9264 17.1259 14.9517 17.1376 14.9829C17.1532 15.0101 17.1668 15.0607 17.1784 15.1347C17.194 15.2087 17.194 15.2749 17.1784 15.3333C17.1629 15.3917 17.1143 15.4462 17.0326 15.4968C16.951 15.5436 16.8363 15.5669 16.6886 15.5669L15.1958 15.5903C15.1025 15.6097 14.9937 15.6 14.8693 15.5611C14.7449 15.5221 14.6438 15.4793 14.566 15.4326L14.4494 15.3625C14.3328 15.2807 14.1967 15.1561 14.0412 14.9887C13.8857 14.8213 13.7516 14.6714 13.6389 14.539C13.53 14.4027 13.4115 14.2898 13.2832 14.2003C13.1588 14.1068 13.0499 14.0757 12.9566 14.1068C12.945 14.1107 12.9294 14.1185 12.91 14.1302C12.8905 14.138 12.8575 14.1652 12.8109 14.2119C12.7642 14.2587 12.7214 14.3171 12.6826 14.3871C12.6476 14.4533 12.6145 14.5546 12.5834 14.6909C12.5562 14.8232 12.5446 14.9731 12.5484 15.1406C12.5484 15.199 12.5407 15.2535 12.5251 15.3041C12.5135 15.3508 12.4999 15.3859 12.4843 15.4092L12.461 15.4384C12.391 15.5124 12.288 15.5552 12.1519 15.5669H11.4813C11.2053 15.5825 10.9215 15.5513 10.63 15.4735C10.3384 15.3917 10.0818 15.2885 9.86026 15.1639C9.64256 15.0354 9.44236 14.9069 9.25965 14.7785C9.08082 14.6461 8.94476 14.5332 8.85146 14.4397L8.70568 14.2995C8.66681 14.2606 8.61238 14.2022 8.54241 14.1243C8.47632 14.0465 8.33832 13.8693 8.12839 13.5928C7.91847 13.3164 7.71243 13.0224 7.51028 12.7109C7.30813 12.3995 7.06906 11.9887 6.79304 11.4786C6.52092 10.9686 6.26824 10.439 6.03499 9.89002C6.01166 9.82772 6 9.77516 6 9.73233C6 9.6895 6.00583 9.65835 6.01749 9.63888L6.04082 9.60384C6.09913 9.52986 6.20992 9.49287 6.3732 9.49287L7.97095 9.48119C8.0176 9.48897 8.0623 9.5026 8.10507 9.52207C8.14783 9.53764 8.17893 9.55322 8.19837 9.56879L8.22752 9.58632C8.28972 9.62914 8.33637 9.69144 8.36747 9.77321C8.44522 9.96789 8.53463 10.1704 8.63571 10.3806C8.73678 10.587 8.81647 10.7447 8.87479 10.8537L8.96809 11.0231C9.08082 11.2567 9.18967 11.4591 9.29463 11.6305C9.3996 11.8018 9.49289 11.9361 9.57453 12.0335C9.66006 12.1269 9.74169 12.2009 9.81944 12.2554C9.89719 12.3099 9.96328 12.3372 10.0177 12.3372C10.0721 12.3372 10.1246 12.3274 10.1751 12.308C10.1829 12.3041 10.1926 12.2943 10.2043 12.2788C10.216 12.2632 10.2393 12.2203 10.2743 12.1503C10.3093 12.0802 10.3345 11.9887 10.3501 11.8758C10.3695 11.7628 10.389 11.6052 10.4084 11.4027C10.4278 11.2002 10.4278 10.9569 10.4084 10.6726C10.4006 10.5169 10.3831 10.3748 10.3559 10.2463C10.3287 10.1178 10.3015 10.0282 10.2743 9.97762L10.2393 9.90754C10.1421 9.77516 9.97689 9.69144 9.74364 9.6564C9.6931 9.64861 9.70282 9.60189 9.77279 9.51623C9.83499 9.44225 9.90885 9.38385 9.99438 9.34102C10.2004 9.23978 10.665 9.19306 11.388 9.20085C11.7068 9.20474 11.9692 9.23005 12.1753 9.27677C12.253 9.29624 12.3171 9.3235 12.3677 9.35854C12.4221 9.38969 12.4629 9.43641 12.4901 9.49871C12.5173 9.55711 12.5368 9.61941 12.5484 9.6856C12.564 9.7479 12.5718 9.83551 12.5718 9.94842C12.5718 10.0613 12.5698 10.1684 12.5659 10.2696C12.5621 10.3709 12.5562 10.5091 12.5484 10.6843C12.5446 10.8556 12.5426 11.0153 12.5426 11.1632C12.5426 11.2061 12.5407 11.2878 12.5368 11.4085C12.5329 11.5292 12.531 11.6227 12.531 11.6889C12.5348 11.7551 12.5426 11.8349 12.5543 11.9283C12.5659 12.0179 12.5873 12.0938 12.6184 12.1561C12.6534 12.2145 12.6981 12.2612 12.7525 12.2963C12.7836 12.3041 12.8167 12.3118 12.8517 12.3196C12.8867 12.3274 12.9372 12.306 13.0033 12.2554C13.0694 12.2048 13.1432 12.1386 13.2249 12.0568C13.3065 11.9712 13.4076 11.8407 13.5281 11.6655C13.6486 11.4864 13.7808 11.2761 13.9246 11.0347C14.1579 10.6298 14.3658 10.1918 14.5486 9.72064C14.5641 9.68171 14.5835 9.64861 14.6069 9.62136C14.6302 9.59021 14.6516 9.56879 14.671 9.55711L14.6943 9.53959C14.7021 9.5357 14.7118 9.5318 14.7235 9.52791C14.7352 9.52012 14.7604 9.51428 14.7993 9.51039C14.8382 9.5026 14.877 9.50066 14.9159 9.50455L16.5953 9.49287C16.7469 9.4734 16.8713 9.47924 16.9685 9.51039C17.0657 9.53764 17.1259 9.56879 17.1493 9.60384L17.1843 9.66224Z" fill="white"/>
</svg>
