<svg width="174" height="174" viewBox="0 0 174 174" fill="none" xmlns="http://www.w3.org/2000/svg">
    <circle cx="87" cy="87" r="87" fill="#3A86CE"/>
    <circle cx="87" cy="87" r="54.5" stroke="white" stroke-opacity="0.2"/>
    <path d="M162.6 87.9287L162.435 89.7857L154.264 92.3133L154.254 92.4322L161.85 96.362L161.685 98.219L151.543 97.3171L151.673 95.8612L159.012 96.5139L159.02 96.4198L151.962 92.7774L152.069 91.5691L159.665 89.2299L159.673 89.1358L152.329 88.4826L152.458 87.0267L162.6 87.9287Z" fill="white"/>
    <path d="M156.811 102.075L156.073 104.718C155.87 105.446 155.579 106.032 155.2 106.477C154.821 106.922 154.379 107.218 153.873 107.366C153.366 107.517 152.821 107.509 152.238 107.343C151.653 107.183 151.174 106.905 150.803 106.509C150.431 106.116 150.19 105.629 150.081 105.048C149.971 104.467 150.018 103.812 150.221 103.084L151.246 99.4117L161.053 102.149L160.639 103.634L152.077 101.244L151.466 103.432C151.348 103.857 151.331 104.237 151.416 104.574C151.5 104.914 151.653 105.196 151.876 105.42C152.099 105.647 152.361 105.803 152.665 105.888C153.105 106.011 153.531 105.947 153.941 105.697C154.355 105.448 154.65 105.006 154.828 104.37L155.566 101.727L156.811 102.075ZM158.404 111.64L148.597 108.903L149.011 107.418L158.818 110.156L158.404 111.64Z" fill="white"/>
    <path d="M144.412 127.84L143.299 127.193L150.331 115.087L151.444 115.734L144.412 127.84Z" fill="white"/>
    <path d="M136.137 139.891L137.21 138.77C137.491 138.956 137.778 139.078 138.072 139.135C138.367 139.191 138.658 139.196 138.948 139.147C139.238 139.099 139.516 139 139.782 138.851C140.046 138.705 140.29 138.514 140.515 138.28C140.921 137.856 141.177 137.374 141.285 136.835C141.391 136.298 141.33 135.736 141.104 135.148C140.876 134.562 140.465 133.985 139.871 133.417C139.272 132.844 138.676 132.456 138.08 132.253C137.483 132.053 136.919 132.019 136.387 132.153C135.855 132.286 135.389 132.563 134.988 132.982C134.766 133.214 134.586 133.464 134.449 133.732C134.312 134.004 134.224 134.285 134.186 134.574C134.148 134.864 134.162 135.153 134.229 135.442C134.297 135.736 134.426 136.018 134.617 136.288L133.541 137.405C133.237 136.999 133.015 136.564 132.876 136.101C132.737 135.642 132.686 135.173 132.722 134.694C132.759 134.22 132.881 133.754 133.089 133.297C133.297 132.84 133.595 132.409 133.982 132.005C134.592 131.368 135.286 130.945 136.064 130.736C136.845 130.529 137.655 130.552 138.495 130.806C139.333 131.062 140.144 131.565 140.926 132.314C141.712 133.066 142.248 133.855 142.536 134.681C142.826 135.509 142.883 136.316 142.708 137.103C142.535 137.892 142.145 138.604 141.538 139.238C141.164 139.629 140.76 139.939 140.324 140.169C139.889 140.403 139.434 140.552 138.959 140.617C138.487 140.683 138.012 140.657 137.533 140.539C137.057 140.423 136.592 140.207 136.137 139.891Z" fill="white"/>
    <path d="M129.5 133.473L131.791 136.459L131.258 136.868C131.194 137.16 131.191 137.507 131.249 137.909C131.307 138.311 131.464 138.794 131.721 139.358C131.978 139.921 132.373 140.594 132.905 141.375L135.334 144.932L130.352 148.755L124.947 141.71L124.032 142.412L121.75 139.438L122.918 138.542L124.407 140.483L129.83 136.322L128.332 134.369L129.5 133.473ZM129.822 137.969L126.115 140.814L130.715 146.81L133.424 144.731L131.738 142.271C131.334 141.674 130.997 141.118 130.727 140.603C130.455 140.089 130.244 139.611 130.097 139.169C129.949 138.731 129.858 138.331 129.822 137.969Z" fill="white"/>
    <path d="M121.891 142.214L126.842 151.111L121.263 154.215L120.62 153.059L124.856 150.702L123.348 147.991L119.403 150.186L118.762 149.035L122.707 146.84L121.191 144.116L116.903 146.502L116.26 145.347L121.891 142.214Z" fill="white"/>
    <path d="M115.035 146.098L115.513 147.342L115.238 147.458C114.864 147.613 114.616 147.855 114.494 148.186C114.37 148.517 114.364 148.978 114.476 149.567C114.585 150.157 114.799 150.918 115.118 151.85L116.669 156.377L110.659 158.684L107.01 149.178L108.426 148.635L111.607 156.925L114.852 155.679L113.607 151.993C113.257 150.959 113.031 150.065 112.929 149.309C112.828 148.556 112.906 147.927 113.164 147.424C113.418 146.921 113.906 146.532 114.627 146.255L115.035 146.098Z" fill="white"/>
    <path d="M104.51 149.914L106.102 149.559L104.738 160.294L103.005 160.68L97.2166 151.537L98.8083 151.183L103.428 158.691L103.506 158.673L104.51 149.914ZM105.11 153.865L99.9463 155.014L99.6655 153.753L104.829 152.603L105.11 153.865Z" fill="white"/>
    <path d="M96.742 151.663L96.8396 152.992L96.5428 153.023C96.1403 153.063 95.833 153.223 95.6211 153.505C95.4058 153.787 95.2669 154.226 95.2043 154.822C95.1384 155.418 95.1233 156.208 95.1591 157.193L95.3357 161.975L88.9148 162.447L88.1692 152.292L89.6815 152.181L90.3317 161.037L93.7975 160.782L93.6715 156.893C93.6346 155.803 93.6766 154.881 93.7974 154.127C93.9185 153.377 94.1751 152.799 94.5672 152.391C94.956 151.983 95.5355 151.752 96.3057 151.695L96.742 151.663Z" fill="white"/>
    <path d="M85.3685 162.519L83.8527 162.39L84.4864 154.94L84.3922 154.932L78.5968 161.943L77.18 161.823L78.0429 151.678L79.5736 151.808L78.9408 159.248L79.0349 159.256L84.8196 152.254L86.2314 152.374L85.3685 162.519Z" fill="white"/>
    <path d="M57.9267 151.192L58.3472 149.975L71.5797 154.547L71.1592 155.764L57.9267 151.192Z" fill="white"/>
    <path d="M49.773 152.819L48.2262 151.778L49.9557 143.402L49.8567 143.335L42.7487 148.092L41.2019 147.051L46.8863 138.604L48.099 139.42L43.9856 145.533L44.0639 145.585L50.6603 141.162L51.6667 141.839L50.0502 149.62L50.1285 149.672L54.2447 143.556L55.4574 144.372L49.773 152.819Z" fill="white"/>
    <path d="M40.3496 141.052L38.3811 139.14C37.839 138.613 37.4632 138.077 37.2537 137.532C37.0442 136.986 36.9955 136.456 37.1076 135.941C37.2172 135.424 37.4846 134.949 37.9095 134.516C38.3298 134.079 38.8026 133.792 39.328 133.655C39.851 133.517 40.3939 133.538 40.9567 133.72C41.5196 133.901 42.072 134.255 42.6141 134.782L45.3493 137.439L38.2551 144.742L37.1495 143.669L43.3432 137.292L41.7134 135.709C41.3972 135.402 41.0709 135.205 40.7345 135.119C40.3957 135.03 40.0745 135.03 39.7711 135.119C39.4653 135.205 39.2028 135.361 38.9834 135.587C38.6647 135.915 38.517 136.319 38.5404 136.8C38.5615 137.282 38.8086 137.753 39.2817 138.213L41.2502 140.125L40.3496 141.052ZM31.1869 137.877L38.2812 130.573L39.3867 131.647L32.2924 138.951L31.1869 137.877Z" fill="white"/>
    <path d="M23.6459 117.871L24.7448 117.2L32.042 129.147L30.9432 129.818L23.6459 117.871Z" fill="white"/>
    <path d="M17.0278 104.829L17.4954 106.308C17.1974 106.465 16.9528 106.659 16.7616 106.89C16.5704 107.121 16.4265 107.375 16.33 107.652C16.2334 107.929 16.1865 108.221 16.1891 108.526C16.1907 108.828 16.2405 109.133 16.3384 109.443C16.5153 110.002 16.8143 110.459 17.2354 110.812C17.6556 111.163 18.1779 111.38 18.8024 111.464C19.4259 111.545 20.1295 111.461 20.9132 111.214C21.7033 110.964 22.3301 110.627 22.7937 110.202C23.2563 109.774 23.5567 109.295 23.6949 108.765C23.8331 108.234 23.8147 107.692 23.6399 107.139C23.5429 106.833 23.4099 106.555 23.2408 106.306C23.0676 106.055 22.8633 105.843 22.628 105.671C22.3927 105.499 22.1321 105.372 21.8461 105.292C21.556 105.21 21.2466 105.188 20.9179 105.226L20.455 103.746C20.9571 103.674 21.4449 103.688 21.9181 103.789C22.3873 103.887 22.8232 104.068 23.2258 104.33C23.6243 104.589 23.974 104.92 24.2749 105.322C24.5758 105.724 24.8107 106.192 24.9796 106.726C25.2454 107.567 25.2832 108.379 25.0928 109.162C24.8994 109.946 24.4897 110.646 23.8638 111.261C23.2369 111.873 22.4068 112.342 21.3734 112.669C20.3369 112.997 19.3873 113.088 18.5248 112.944C17.6591 112.801 16.9232 112.463 16.3172 111.932C15.708 111.401 15.271 110.717 15.0061 109.88C14.8433 109.365 14.7656 108.861 14.7733 108.369C14.7767 107.874 14.8642 107.403 15.0357 106.956C15.204 106.51 15.4551 106.105 15.7888 105.743C16.1193 105.381 16.5323 105.077 17.0278 104.829Z" fill="white"/>
    <path d="M25.8153 102.069L22.0942 102.632L21.9937 101.968C21.7694 101.771 21.4671 101.601 21.0867 101.457C20.7063 101.313 20.2075 101.218 19.5902 101.171C18.973 101.123 18.1934 101.144 17.2515 101.233L12.9637 101.64L12.0243 95.4318L20.8036 94.1033L20.631 92.9629L24.3374 92.402L24.5576 93.857L22.1391 94.223L23.1619 100.982L25.5951 100.614L25.8153 102.069ZM21.723 100.179L21.0237 95.5583L13.552 96.689L14.063 100.066L17.0313 99.7778C17.7489 99.7128 18.3986 99.6865 18.9804 99.699C19.5617 99.7083 20.0817 99.7553 20.5403 99.8401C20.9952 99.9221 21.3894 100.035 21.723 100.179Z" fill="white"/>
    <path d="M21.8307 91.3947L11.6492 91.4733L11.5999 85.09L12.9223 85.0798L12.9597 89.9269L16.0619 89.903L16.0271 85.3889L17.3445 85.3787L17.3793 89.8928L20.4964 89.8687L20.4586 84.9619L21.781 84.9517L21.8307 91.3947Z" fill="white"/>
    <path d="M21.6977 83.2764L20.3774 83.0973L20.4076 82.8004C20.4521 82.3983 20.3586 82.0646 20.127 81.799C19.8959 81.5302 19.4952 81.3036 18.9248 81.1192C18.3549 80.9315 17.5847 80.7534 16.6142 80.5849L11.8983 79.7696L12.7638 73.3898L22.8532 74.7585L22.6494 76.2611L13.8507 75.0675L13.3835 78.5111L17.2146 79.1914C18.2894 79.3806 19.1828 79.6122 19.8949 79.8861C20.6036 80.1595 21.117 80.5302 21.4348 80.9981C21.7531 81.4627 21.8603 82.0776 21.7565 82.8429L21.6977 83.2764Z" fill="white"/>
    <path d="M23.3981 72.1352L22.9418 73.7008L14.1919 67.3342L14.6885 65.6302L25.4888 64.9614L25.0325 66.5269L16.2276 66.9591L16.2053 67.0355L23.3981 72.1352ZM19.6466 70.7571L21.1267 65.6786L22.3677 66.0403L20.8876 71.1188L19.6466 70.7571Z" fill="white"/>
    <path d="M25.5093 64.6274L24.2982 64.072L24.4135 63.7967C24.573 63.425 24.5806 63.0785 24.4363 62.7571C24.2934 62.4326 23.9759 62.0993 23.4839 61.7569C22.9932 61.4116 22.3081 61.0172 21.4285 60.5737L17.1537 58.4219L19.8374 52.5697L29.0925 56.8139L28.4604 58.1923L20.3893 54.491L18.9407 57.6498L22.4083 59.415C23.3816 59.9087 24.169 60.3902 24.7706 60.8593C25.3692 61.3271 25.7525 61.831 25.9205 62.3711C26.0899 62.9082 26.0136 63.5278 25.6917 64.2297L25.5093 64.6274Z" fill="white"/>
    <path d="M21.3729 49.5555L22.213 48.2872L28.4469 52.4161L28.499 52.3373L25.1257 43.8895L25.9109 42.704L34.3996 48.3264L33.5513 49.6071L27.3257 45.4837L27.2735 45.5625L30.644 53.9966L29.8616 55.1779L21.3729 49.5555Z" fill="white"/>
    <path d="M44.2857 30.9952L45.1557 31.9445L34.8341 41.4031L33.9641 40.4538L44.2857 30.9952Z" fill="white"/>
    <path d="M46.7407 22.9685L48.3927 22.1044L54.9333 27.6154L55.039 27.5601L54.243 19.0444L55.895 18.1803L60.6141 27.2025L59.3189 27.8799L55.904 21.3512L55.8203 21.3949L56.5675 29.3022L55.4925 29.8645L49.4214 24.7363L49.3377 24.7801L52.7549 31.3132L51.4597 31.9907L46.7407 22.9685Z" fill="white"/>
    <path d="M61.8415 20.1478L64.4643 19.3401C65.1865 19.1177 65.8372 19.0457 66.4162 19.1241C66.9952 19.2024 67.4835 19.4144 67.8813 19.7601C68.2822 20.1048 68.5703 20.5675 68.7457 21.1482C68.9273 21.7269 68.9518 22.2794 68.8191 22.8058C68.6896 23.3312 68.41 23.797 67.9802 24.2033C67.5504 24.6096 66.9744 24.924 66.2522 25.1464L62.6079 26.2686L59.6115 16.5376L61.0844 16.0841L63.7004 24.5796L65.8718 23.911C66.2931 23.7813 66.6225 23.5897 66.8601 23.3362C67.1008 23.0817 67.2551 22.8001 67.323 22.4914C67.3941 22.1816 67.3833 21.8763 67.2906 21.5754C67.156 21.1383 66.8726 20.8146 66.4402 20.6044C66.0069 20.391 65.4751 20.3814 64.8447 20.5755L62.2219 21.3831L61.8415 20.1478ZM69.0288 13.6378L72.0252 23.3687L70.5523 23.8223L67.5559 14.0913L69.0288 13.6378Z" fill="white"/>
    <path d="M90.0415 16.6349L90.1011 17.9212L76.1161 18.5693L76.0565 17.283L90.0415 16.6349Z" fill="white"/>
    <path d="M105.008 17.0837L103.486 16.7814C103.492 16.4447 103.44 16.137 103.33 15.8583C103.22 15.5796 103.067 15.3311 102.87 15.113C102.673 14.8948 102.441 14.7134 102.172 14.5688C101.907 14.4249 101.615 14.3212 101.296 14.258C100.721 14.1436 100.177 14.1859 99.6642 14.3848C99.1549 14.5844 98.713 14.9376 98.3386 15.4444C97.9674 15.9519 97.7018 16.6088 97.5416 17.415C97.3801 18.2277 97.3739 18.9394 97.5229 19.5503C97.6751 20.1617 97.9504 20.6557 98.3486 21.0322C98.7469 21.4087 99.2305 21.6534 99.7994 21.7665C100.115 21.8291 100.422 21.8463 100.722 21.8179C101.025 21.787 101.309 21.7099 101.574 21.5867C101.838 21.4636 102.074 21.2959 102.282 21.0837C102.494 20.8689 102.662 20.6084 102.787 20.3021L104.307 20.6092C104.129 21.0839 103.881 21.5045 103.565 21.8708C103.253 22.2346 102.885 22.5299 102.462 22.7566C102.042 22.9807 101.583 23.1279 101.086 23.1981C100.589 23.2683 100.066 23.2488 99.5165 23.1396C98.6518 22.9679 97.922 22.61 97.3272 22.066C96.733 21.5188 96.3171 20.8229 96.0794 19.9782C95.845 19.1341 95.8334 18.1806 96.0446 17.1176C96.2564 16.0513 96.6333 15.1749 97.1751 14.4885C97.7177 13.7988 98.3677 13.3163 99.1253 13.041C99.8835 12.7625 100.693 12.7088 101.555 12.8799C102.085 12.9852 102.564 13.1598 102.992 13.4036C103.424 13.6449 103.794 13.9483 104.103 14.3138C104.413 14.6761 104.647 15.0909 104.804 15.558C104.962 16.0219 105.03 16.5305 105.008 17.0837Z" fill="white"/>
    <path d="M103.246 26.1113L104.541 22.5779L105.171 22.809C105.452 22.7072 105.747 22.5241 106.056 22.2596C106.365 21.9951 106.688 21.6036 107.027 21.0852C107.365 20.5668 107.722 19.8733 108.097 19.0047L109.801 15.0493L115.697 17.211L112.64 25.5475L113.723 25.9445L112.432 29.464L111.05 28.9574L111.893 26.6609L105.474 24.3075L104.627 26.618L103.246 26.1113ZM106.87 23.432L111.258 25.0408L113.86 17.946L110.653 16.7701L109.478 19.5113C109.19 20.1717 108.901 20.754 108.61 21.2581C108.322 21.7633 108.031 22.1967 107.736 22.558C107.446 22.9174 107.157 23.2088 106.87 23.432Z" fill="white"/>
    <path d="M114.439 27.6945L119.291 18.7431L124.903 21.7851L124.273 22.9477L120.011 20.6378L118.533 23.3652L122.502 25.5164L121.874 26.6746L117.905 24.5235L116.42 27.264L120.734 29.6023L120.104 30.7649L114.439 27.6945Z" fill="white"/>
    <path d="M121.389 31.3375L122.181 30.2657L122.426 30.435C122.758 30.6672 123.095 30.7456 123.439 30.6702C123.786 30.5967 124.178 30.3542 124.613 29.9427C125.052 29.5331 125.578 28.9433 126.192 28.1732L129.174 24.4296L134.353 28.2547L128.303 36.4446L127.084 35.5437L132.359 28.4016L129.564 26.3368L127.126 29.3695C126.443 30.221 125.811 30.8932 125.229 31.386C124.648 31.8761 124.076 32.1481 123.513 32.2019C122.953 32.2577 122.362 32.0562 121.741 31.5974L121.389 31.3375Z" fill="white"/>
    <path d="M130.299 38.1118L129.141 36.9629L138.915 32.3186L140.175 33.5691L135.602 43.3763L134.444 42.2274L138.272 34.2861L138.216 34.2301L130.299 38.1118ZM133.302 35.4748L137.056 39.2016L136.145 40.119L132.391 36.3921L133.302 35.4748Z" fill="white"/>
    <path d="M136.257 43.9724L137.326 43.1768L137.512 43.4102C137.761 43.7286 138.062 43.9017 138.413 43.9295C138.766 43.96 139.211 43.8416 139.748 43.5745C140.286 43.31 140.961 42.8984 141.773 42.34L145.713 39.6239L149.557 44.7886L141.389 50.8679L140.484 49.6515L147.607 44.3499L145.532 41.5622L142.318 43.7559C141.418 44.3724 140.617 44.8318 139.917 45.1342C139.219 45.4346 138.593 45.5287 138.039 45.4167C137.486 45.3073 136.979 44.9428 136.518 44.3233L136.257 43.9724Z" fill="white"/>
    <path d="M151.235 47.2174L151.95 48.5602L145.35 52.0747L145.395 52.1581L154.43 53.2161L155.098 54.4711L146.111 59.2568L145.389 57.9009L151.98 54.391L151.935 54.3077L142.914 53.2538L142.248 52.0031L151.235 47.2174Z" fill="white"/>
    <path d="M156.648 76.3841L155.397 76.6925L152.044 63.0999L153.295 62.7915L156.648 76.3841Z" fill="white"/>
    <line x1="87.5" y1="67" x2="87.5" y2="107" stroke="white"/>
    <path d="M67 87L87 107L107 87" stroke="white"/>
</svg>
